<mxfile host="app.diagrams.net" modified="2022-09-27T11:27:12.788Z" agent="5.0 (Macintosh; Intel Mac OS X 10_15_7) AppleWebKit/537.36 (KHTML, like Gecko) Chrome/105.0.0.0 Safari/537.36" etag="Pt2uuhPaNFRLb5ZqmMlM" version="20.3.2" type="github">
  <diagram id="FEQaooY9dVQ4uySeMqfo" name="Page-1">
    <mxGraphModel dx="701" dy="443" grid="1" gridSize="10" guides="1" tooltips="1" connect="1" arrows="1" fold="1" page="1" pageScale="1" pageWidth="827" pageHeight="1169" math="0" shadow="0">
      <root>
        <mxCell id="0" />
        <mxCell id="1" parent="0" />
        <mxCell id="7ZAmrwiSJ0UzYu6t1PN0-1" value="&lt;meta charset=&quot;utf-8&quot;&gt;&lt;span style=&quot;color: rgb(32, 33, 36); font-family: arial, sans-serif; font-size: 16px; font-style: normal; font-variant-ligatures: normal; font-variant-caps: normal; font-weight: 400; letter-spacing: normal; orphans: 2; text-align: left; text-indent: 0px; text-transform: none; widows: 2; word-spacing: 0px; -webkit-text-stroke-width: 0px; background-color: rgb(255, 255, 255); text-decoration-thickness: initial; text-decoration-style: initial; text-decoration-color: initial; float: none; display: inline !important;&quot;&gt;Inflation and price indices&lt;/span&gt;" style="rounded=0;whiteSpace=wrap;html=1;" vertex="1" parent="1">
          <mxGeometry x="120" y="200" width="210" height="40" as="geometry" />
        </mxCell>
        <mxCell id="7ZAmrwiSJ0UzYu6t1PN0-2" value="PPI" style="rounded=0;whiteSpace=wrap;html=1;" vertex="1" parent="1">
          <mxGeometry x="414" y="120" width="106" height="30" as="geometry" />
        </mxCell>
        <mxCell id="7ZAmrwiSJ0UzYu6t1PN0-3" value="CPI" style="rounded=0;whiteSpace=wrap;html=1;" vertex="1" parent="1">
          <mxGeometry x="414" y="220" width="106" height="30" as="geometry" />
        </mxCell>
        <mxCell id="7ZAmrwiSJ0UzYu6t1PN0-4" value="商品价格P * 商品数量Q = 货币总量" style="text;html=1;strokeColor=none;fillColor=none;align=center;verticalAlign=middle;whiteSpace=wrap;rounded=0;" vertex="1" parent="1">
          <mxGeometry x="110" y="10" width="220" height="40" as="geometry" />
        </mxCell>
        <mxCell id="7ZAmrwiSJ0UzYu6t1PN0-5" value="货币供应量M * 货币流通速度V = 货币总量" style="text;html=1;strokeColor=none;fillColor=none;align=center;verticalAlign=middle;whiteSpace=wrap;rounded=0;" vertex="1" parent="1">
          <mxGeometry x="110" y="60" width="230" height="40" as="geometry" />
        </mxCell>
      </root>
    </mxGraphModel>
  </diagram>
</mxfile>
